REM GENRE "Rock / Art Rock / Pop Rock"
REM DATE 1979
REM DISCID 790ADA0A
REM COMMENT "ExactAudioCopy v1.0b4"
PERFORMER "Supertramp"
TITLE "Breakfast In America PT-SHM"
FILE "Supertramp - Breakfast In America PT-SHM.flac" WAVE
  TRACK 01 AUDIO
    TITLE "Gone Hollywood"
    PERFORMER "Supertramp"
    PERFORMER "Supertramp"
    INDEX 00 15:18:25
    INDEX 01 15:20:17
  TRACK 05 AUDIO
    TITLE "Oh Darling"
    PERFORMER "Supertramp"
    INDEX 01 17:59:37
  TRACK 06 AUDIO
    TITLE "Take The Lolg Way Home"
      INDEX 00 09:27:43
    INDEX 01 09:29:65
  TRACK 04 AUDIO
    TITLE "Breakfast In America"
    PERFORMER "Supertramp"
    INDEX 00 15:18:25
    INDEX 01 15:20:17
  TRACK 05 AUDIO
    TITLE "Oh Darling"
    PERFORMER "Supertramp"
    INDEX 01 17:59:37
  TRACK 06 AUDIO
    TITLE "Take The Long Way Home"
    PERFORMER "Supertramp"Û†ÅÄ
    INDEX 01 00:00:00
  TRACK 02 AUDIO
    TITLE "The Logical Song"
    PERFORMER "Supertramp"
    INDEX 01 05:18:47
  TRACK 03 AUDIO
    TITLE "Goodbye Stranger"
    PERFORMER "Supertramp"
    INDEX 00 09:27:43
    INDEX 01 09:29:65
  TRACK 04 AUDIO
    TITLE "Breakfast In America"
    PERFORMER "Supertramp"
    INDEX 00 15:18:25
    INDEX 01 15:20:17
  TRACK 05 AUDIO
    TITLE "Oh Darling"
    PERFORMER "Supertramp"
    INDEX 01 17:59:37
  TRACK 06 AUDIO
    TI  PERFORMER "Supe Long Way Home"
    PERFORMER "Supertray Home"
    PERFORMER "Supertr=a49:300 22:06:‡πÅ30ùÛ†ÅáÖ†
